cyclingleg_probed_states
version=1
nRows=4
nColumns=49
inDegrees=yes

# SIMM Motion File Header:
name cyclingleg_probed_states
datacolumns 49
datarows 4
otherdata 1
range 0.66004595 0.67110935
endheader
time	/jointset/bb/crank_angle/value	/jointset/bb/crank_angle/speed	/jointset/spindle/pedal_angle_r/value	/jointset/spindle/pedal_angle_r/speed	/jointset/ground_pelvis/pelvis_tilt/value	/jointset/ground_pelvis/pelvis_tilt/speed	/jointset/ground_pelvis/pelvis_list/value	/jointset/ground_pelvis/pelvis_list/speed	/jointset/ground_pelvis/pelvis_rotation/value	/jointset/ground_pelvis/pelvis_rotation/speed	/jointset/ground_pelvis/pelvis_tx/value	/jointset/ground_pelvis/pelvis_tx/speed	/jointset/ground_pelvis/pelvis_ty/value	/jointset/ground_pelvis/pelvis_ty/speed	/jointset/ground_pelvis/pelvis_tz/value	/jointset/ground_pelvis/pelvis_tz/speed	/jointset/hip_r/hip_angle_r/value	/jointset/hip_r/hip_angle_r/speed	/jointset/hip_r/hip_adduction_r/value	/jointset/hip_r/hip_adduction_r/speed	/jointset/hip_r/hip_rotation_r/value	/jointset/hip_r/hip_rotation_r/speed	/jointset/knee_r/knee_angle_r/value	/jointset/knee_r/knee_angle_r/speed	/jointset/knee_r/tib_tx_r/value	/jointset/knee_r/tib_tx_r/speed	/jointset/knee_r/tib_ty_r/value	/jointset/knee_r/tib_ty_r/speed	/jointset/tib_pat_r/pat_angle_r/value	/jointset/tib_pat_r/pat_angle_r/speed	/jointset/tib_pat_r/pat_tx_r/value	/jointset/tib_pat_r/pat_tx_r/speed	/jointset/tib_pat_r/pat_ty_r/value	/jointset/tib_pat_r/pat_ty_r/speed	/jointset/ankle_r/ankle_angle_r/value	/jointset/ankle_r/ankle_angle_r/speed	/jointset/subtalar_r/subtalar_angle_r/value	/jointset/subtalar_r/subtalar_angle_r/speed	/jointset/mtp_r/mtp_angle_r/value	/jointset/mtp_r/mtp_angle_r/speed	/forceset/bifemlh_r/activation	/forceset/bifemlh_r/fiber_length	/forceset/bifemsh_r/activation	/forceset/bifemsh_r/fiber_length	/forceset/glut_max2_r/activation	/forceset/glut_max2_r/fiber_length	/forceset/vas_int_r/activation	/forceset/vas_int_r/fiber_length
      0.66004595	   -322.97015684	   -157.59971682	    304.51446383	    195.32550667	     -0.00000000	     -0.00000000	      0.00000000	      0.00000000	      0.00000000	      0.00000000	     -0.10000000	      0.00000000	     -0.05000000	     -0.00000000	      0.00000000	      0.00000000	     72.56325214	     52.38094049	      4.03987846	     -0.22510468	     -4.22520014	     -2.53591931	   -119.33460732	    -22.92159073	     -0.00350624	     -0.00853589	     -0.49582915	     -0.00724322	     17.65051732	     -0.01521771	      0.01978048	     -0.01166865	     -0.02455421	     -0.00190123	     29.04616975	      8.50350030	     -0.00000000	     -0.00000000	      0.00000000	      0.00000000	     -0.05953879	      0.13165078	     -0.05953879	      0.14494753	     -0.05953879	      0.15116469	     -0.05953879	      0.16238204
      0.66509057	   -323.73035386	   -143.79886357	    305.45789234	    178.69438517	     -0.00000000	     -0.00000000	      0.00000000	      0.00000000	      0.00000000	      0.00000000	     -0.10000000	      0.00000000	     -0.05000000	     -0.00000000	      0.00000000	      0.00000000	     72.81532070	     47.56639260	      4.03882053	     -0.19483984	     -4.23713815	     -2.20232805	   -119.44240177	    -19.86558990	     -0.00354643	     -0.00741679	     -0.49586320	     -0.00627270	     17.65044408	     -0.01380836	      0.01972558	     -0.01012362	     -0.02456316	     -0.00164965	     29.08624372	      7.40081933	     -0.00000000	     -0.00000000	      0.00000000	      0.00000000	     -0.06018828	      0.13187102	     -0.06018828	      0.14494014	     -0.06018828	      0.15129705	     -0.06018828	      0.16242410
      0.66680222	   -323.97248598	   -139.12472509	    305.75890697	    173.02887467	     -0.00000000	     -0.00000000	      0.00000000	      0.00000000	      0.00000000	      0.00000000	     -0.10000000	      0.00000000	     -0.05000000	     -0.00000000	      0.00000000	      0.00000000	     72.89535101	     45.94744976	      4.03849528	     -0.18525117	     -4.24081638	     -2.09612469	   -119.47556990	    -18.89566390	     -0.00355882	     -0.00706022	     -0.49587367	     -0.00596503	     17.65042086	     -0.01331476	      0.01970867	     -0.00963247	     -0.02456592	     -0.00156967	     29.09860832	      7.04859109	     -0.00000000	     -0.00000000	      0.00000000	      0.00000000	     -0.06040866	      0.13194123	     -0.06040866	      0.14493793	     -0.06040866	      0.15133912	     -0.06040866	      0.16244128
      0.67110935	   -324.54642537	   -127.38575569	    306.47340270	    158.73402127	     -0.00000000	     -0.00000000	      0.00000000	      0.00000000	      0.00000000	      0.00000000	     -0.10000000	      0.00000000	     -0.05000000	     -0.00000000	      0.00000000	      0.00000000	     73.08453652	     41.90773442	      4.03774698	     -0.16254913	     -4.24929365	     -1.84369785	   -119.55193319	    -16.59594231	     -0.00358738	     -0.00621216	     -0.49589777	     -0.00523618	     17.65036622	     -0.01205844	      0.01966973	     -0.00846647	     -0.02457226	     -0.00137976	     29.12713636	      6.20920324	     -0.00000000	     -0.00000000	      0.00000000	      0.00000000	     -0.06096320	      0.13210795	     -0.06096320	      0.14493283	     -0.06096320	      0.15143880	     -0.06096320	      0.16247661
